<svg width="31" height="31" viewBox="0 0 31 31" fill="none" xmlns="http://www.w3.org/2000/svg">
<g id="01 align center">
<path id="Vector" d="M30.4072 28.8279L22.6723 21.0929C24.6815 18.6356 25.6694 15.5 25.4316 12.3347C25.1938 9.16938 23.7484 6.21658 21.3946 4.08705C19.0407 1.95752 15.9584 0.814177 12.7851 0.893518C9.61192 0.972858 6.59059 2.26881 4.34608 4.51332C2.10157 6.75782 0.805622 9.77916 0.726282 12.9524C0.646941 16.1256 1.79028 19.2079 3.91982 21.5618C6.04935 23.9157 9.00214 25.361 12.1674 25.5988C15.3327 25.8366 18.4683 24.8488 20.9257 22.8395L28.6606 30.5745L30.4072 28.8279ZM13.1142 23.1631C11.1597 23.1631 9.24919 22.5836 7.62414 21.4978C5.99909 20.4119 4.73252 18.8686 3.98459 17.063C3.23667 15.2573 3.04097 13.2704 3.42226 11.3536C3.80355 9.43668 4.7447 7.67592 6.12669 6.29393C7.50868 4.91194 9.26944 3.97079 11.1863 3.5895C13.1032 3.20821 15.0901 3.4039 16.8957 4.15183C18.7014 4.89976 20.2447 6.16633 21.3305 7.79137C22.4164 9.41642 22.9959 11.327 22.9959 13.2814C22.993 15.9013 21.9509 18.413 20.0984 20.2656C18.2458 22.1181 15.7341 23.1602 13.1142 23.1631Z" fill="white"/>
</g>
</svg>
